# xmcd
#
# Track frame offsets: 
#        150
#        15135
#        28177
#        50534
#        65217
#        80354
#        89806
#        106049
#        114848
#        131266
#        154317
#        168282
#        193245
#
# Disc length: 2785 seconds
#
# Revision: 0
# Processed by: cddbd v1.4PL0 Copyright (c) Steve Scherf et al.
# Submitted via: ExactAudioCopy v0.90b4
#
DISCID=a30adf0d
DTITLE=The Silver voices - Songs we love so dear
DYEAR=1900
DGENRE=Gospel
TTITLE0=Where could I go but the Lord
TTITLE1=Shadrach
TTITLE2=I shall not be moved
TTITLE3=Lead me, guid me
TTITLE4=Country medley
TTITLE5=Walk dem golden stairs
TTITLE6=Hush
TTITLE7=Stay on the right side
TTITLE8=Just a closer walk with Thee
TTITLE9=God's gonna cut you down
TTITLE10=No restricted signs
TTITLE11=why me Lord
TTITLE12=His hand in mine
EXTD=
EXTT0=
EXTT1=
EXTT2=
EXTT3=
EXTT4=
EXTT5=
EXTT6=
EXTT7=
EXTT8=
EXTT9=
EXTT10=
EXTT11=
EXTT12=
PLAYORDER=
